<svg xmlns="http://www.w3.org/2000/svg" width="120" height="42" version="1"><g><g><path d="M3.14.508l113.354.2c1.583 0 2.998-.234 2.998 3.16l-.138 37.33H.28V3.73C.28 2.057.44.51 3.14.51z" fill="#aab2ab"/><path d="M117.752 0H2.247C1.007 0 0 1.008 0 2.246v39.247c0 .28.228.507.508.507h118.984c.28 0 .508-.227.508-.507V2.246C120 1.008 118.992 0 117.752 0zM2.247 1.015h115.505c.68 0 1.233.552 1.233 1.23v27.277H36.16c-3.026 5.47-8.856 9.186-15.547 9.186-6.693 0-12.52-3.71-15.546-9.186H1.015V2.246c0-.68.553-1.23 1.232-1.23z"/><g enable-background="new" fill="#fff"><path d="M73.81 32.747c.314 0 .603.03.864.084.26.056.482.147.668.275.186.126.33.295.432.504.102.21.154.47.154.778 0 .334-.076.612-.23.834-.15.223-.375.405-.672.547.41.117.715.322.917.616.202.294.303.65.303 1.063 0 .333-.065.622-.195.866s-.305.444-.524.598c-.22.155-.472.27-.753.344-.283.074-.572.11-.87.11h-3.216v-6.62h3.122zm-.187 2.68c.26 0 .473-.063.64-.187.168-.123.252-.323.252-.6 0-.155-.03-.282-.084-.38-.055-.1-.13-.175-.222-.232-.093-.055-.2-.094-.32-.115-.12-.02-.247-.032-.376-.032h-1.365v1.546h1.476zm.085 2.81c.143 0 .28-.015.41-.043.13-.028.243-.075.343-.14.1-.064.18-.152.238-.264.06-.11.088-.253.088-.425 0-.34-.096-.583-.288-.728-.192-.145-.446-.218-.762-.218h-1.59v1.816h1.562z"/><path d="M76.503 32.747h1.633l1.55 2.616 1.542-2.616h1.624l-2.458 4.08v2.542h-1.46v-2.58l-2.43-4.043z"/></g><g><path d="M34.164 19.662c.005 7.526-6.093 13.63-13.62 13.636-7.525.004-13.63-6.093-13.634-13.62v-.016c-.005-7.526 6.093-13.63 13.618-13.635 7.527-.005 13.63 6.093 13.636 13.62v.015z" fill="#fff"/><g><path d="M31.614 8.563c3.022 3.022 4.533 6.723 4.533 11.1s-1.485 8.038-4.455 10.983c-3.152 3.1-6.877 4.65-11.175 4.65-4.246 0-7.907-1.537-10.98-4.612-3.075-3.074-4.612-6.747-4.612-11.02 0-4.275 1.537-7.974 4.61-11.1 2.997-3.024 6.658-4.535 10.982-4.535 4.377 0 8.075 1.51 11.097 4.533zM11.57 10.596c-2.554 2.58-3.83 5.603-3.83 9.07 0 3.467 1.263 6.465 3.792 8.992 2.528 2.53 5.538 3.793 9.03 3.793 3.494 0 6.53-1.276 9.11-3.83 2.45-2.373 3.676-5.356 3.676-8.953 0-3.57-1.245-6.6-3.735-9.09-2.49-2.49-5.505-3.734-9.05-3.734-3.544 0-6.543 1.25-8.992 3.753zm6.724 7.546c-.39-.85-.975-1.277-1.754-1.277-1.378 0-2.067.927-2.067 2.782s.69 2.782 2.067 2.782c.91 0 1.56-.453 1.95-1.358l1.91 1.017c-.91 1.617-2.277 2.426-4.098 2.426-1.404 0-2.53-.43-3.374-1.29-.846-.863-1.268-2.05-1.268-3.563 0-1.487.435-2.668 1.307-3.542.87-.874 1.956-1.31 3.258-1.31 1.925 0 3.303.758 4.136 2.273l-2.066 1.06zm8.985 0c-.392-.85-.965-1.277-1.72-1.277-1.405 0-2.108.927-2.108 2.782s.703 2.782 2.108 2.782c.912 0 1.55-.453 1.914-1.358l1.953 1.017c-.91 1.617-2.273 2.426-4.09 2.426-1.403 0-2.526-.43-3.37-1.29-.843-.863-1.266-2.05-1.266-3.563 0-1.487.43-2.668 1.287-3.542.857-.874 1.947-1.31 3.272-1.31 1.92 0 3.296.758 4.127 2.273l-2.108 1.06z"/></g></g><g transform="matrix(.994 0 0 .994 -177.693 0)"><circle cx="255.551" cy="15.313" r="10.807" fill="#fff"/><g><path d="M258.678 12.187c0-.416-.338-.754-.753-.754h-4.773c-.415 0-.753.338-.753.754v4.773h1.33v5.652h3.617V16.96h1.33v-4.773z"/><circle cx="255.539" cy="9.172" r="1.633"/></g><path clip-rule="evenodd" d="M255.524 3.407c-3.233 0-5.97 1.128-8.208 3.384-2.298 2.335-3.446 5.097-3.446 8.286 0 3.19 1.148 5.93 3.446 8.226 2.298 2.295 5.034 3.442 8.208 3.442 3.213 0 5.998-1.156 8.353-3.47 2.22-2.198 3.33-4.93 3.33-8.198 0-3.268-1.13-6.03-3.387-8.285-2.26-2.255-5.025-3.383-8.296-3.383zm.03 2.1c2.648 0 4.897.934 6.746 2.8 1.87 1.848 2.804 4.104 2.804 6.77 0 2.682-.915 4.91-2.745 6.68-1.93 1.905-4.197 2.858-6.807 2.858-2.61 0-4.86-.943-6.747-2.83-1.89-1.887-2.833-4.123-2.833-6.71 0-2.586.954-4.842 2.862-6.767 1.83-1.867 4.07-2.8 6.718-2.8z" fill-rule="evenodd"/></g></g></g></svg>
