<svg width="40" height="40" viewBox="0 0 60 60" xmlns="http://www.w3.org/2000/svg"><path d="M.337 30c0-16.57 13.23-30 29.55-30S59.44 13.43 59.44 30 46.207 60 29.887 60 .338 46.57.338 30zm0 0" fill="#333"/><path d="M18.218 31.936c1.39 2.515 4.067 4.08 8.583 4.513-.644.487-1.418 1.413-1.525 2.484-.81.523-2.44.696-3.708.297-1.775-.558-2.455-4.066-5.114-3.566-.576.108-.46.487.037.808.81.524 1.573 1.178 2.16 2.572.453 1.07 1.403 2.982 4.407 2.982 1.192 0 2.027-.143 2.027-.143s.023 2.73.023 3.793c0 1.224-1.656 1.57-1.656 2.16 0 .232.55.254.99.254.87 0 2.682-.725 2.682-1.998 0-1.01.016-4.41.016-5.006 0-1.3.7-1.712.7-1.712s.086 6.94-.168 7.872c-.297 1.094-.834.94-.834 1.427 0 .726 2.18.178 2.904-1.416.558-1.24.314-8.05.314-8.05l.596-.012s.034 3.117.014 4.542c-.02 1.476-.12 3.342.757 4.222.578.578 2.45 1.593 2.45.665 0-.54-1.026-.983-1.026-2.442V39.47c.818 0 .695 2.207.695 2.207l.06 4.102s-.18 1.493 1.62 2.12c.634.22 1.994.28 2.058-.09.064-.374-1.637-.93-1.653-2.086-.01-.706.032-1.118.032-4.186 0-3.068-.413-4.202-1.852-5.106 4.44-.455 7.19-1.55 8.53-4.487.103.003.544-1.37.487-1.37.3-1.11.462-2.42.495-3.972-.008-4.21-2.027-5.7-2.416-6.398.574-3.187-.094-4.637-.404-5.135-1.144-.406-3.98 1.045-5.53 2.067-2.528-.737-7.868-.666-9.87.19-3.695-2.64-5.65-2.235-5.65-2.235s-1.264 2.26-.334 5.565c-1.216 1.546-2.122 2.64-2.122 5.54 0 1.633.193 3.095.628 4.372-.054-.002.583 1.366.6 1.366zm0 0" fill="#fff"/><path d="M59.44 30c0 16.57-13.232 30-29.552 30-6.053 0-11.68-1.847-16.366-5.017L47.382 5.82C54.694 11.28 59.44 20.077 59.44 30zm0 0" fill-opacity=".08"/></svg>