<svg width="40" height="40" viewBox="0 0 60 60" xmlns="http://www.w3.org/2000/svg"><path d="M.45 30C.45 13.43 13.68 0 30 0s29.55 13.43 29.55 30S46.32 60 30 60 .45 46.57.45 30zm0 0" fill="#007BB6"/><path d="M22.468 23.71H15.78v20.427h6.688V23.71zm0 0M22.908 17.39c-.043-2.002-1.452-3.527-3.74-3.527-2.287 0-3.783 1.525-3.783 3.528 0 1.962 1.452 3.532 3.697 3.532h.043c2.33 0 3.783-1.57 3.783-3.53zm0 0M46.585 32.425c0-6.275-3.3-9.195-7.7-9.195-3.55 0-5.14 1.983-6.027 3.374V23.71H26.17c.088 1.917 0 20.427 0 20.427h6.688V32.73c0-.61.043-1.22.22-1.657.483-1.22 1.583-2.483 3.43-2.483 2.422 0 3.39 1.873 3.39 4.618v10.93h6.686V32.424zm0 0" fill="#fff"/><path d="M59.55 30c0 16.57-13.23 30-29.55 30-6.053 0-11.68-1.847-16.366-5.017L47.494 5.82C54.806 11.28 59.55 20.077 59.55 30zm0 0" fill-opacity=".08"/></svg>