<svg width="40" height="40" xmlns="http://www.w3.org/2000/svg"><path fill="#919191" d="M7.294 23.11l2.386.023-.083 10.553h15.878V23.172h2.514V36.25H7.28l.014-13.14zM11.185 29.35h12.438v2.628H11.185z"/><path fill="#a78b68" d="M11.476 24.618l12.446 1.193-.26 2.683L11.215 27.3z"/><path fill="#c19653" d="M12.615 19.268l12.034 3.374-.738 2.593-12.034-3.373z"/><path fill="#d48c28" d="M15.532 13.222l10.703 6.42-1.402 2.308-10.704-6.422z"/><path fill="#fe8908" d="M21.62 7.496l7.283 10.096-2.205 1.57-7.283-10.097z"/><path fill="#ff7a15" d="M30.08 4.75L32.14 17l-2.675.445-2.06-12.25z"/></svg>