<svg width="40" height="40" viewBox="0 0 60 60" xmlns="http://www.w3.org/2000/svg"><path d="M0 30C0 13.43 13.45 0 30.043 0s30.044 13.43 30.044 30-13.45 30-30.044 30C13.45 60 0 46.57 0 30zm0 0" fill="#4099FF"/><path d="M29.3 23.888l.063 1.038-1.05-.127c-3.82-.488-7.155-2.14-9.988-4.916l-1.385-1.377-.357 1.017c-.755 2.267-.273 4.66 1.3 6.27.84.89.652 1.018-.796.488-.504-.17-.944-.297-.986-.233-.146.147.357 2.075.756 2.838.546 1.06 1.658 2.097 2.875 2.71l1.03.49-1.218.02c-1.175 0-1.217.02-1.09.466.42 1.377 2.076 2.84 3.923 3.474l1.3.445-1.132.678c-1.68.976-3.65 1.526-5.624 1.57-.945.02-1.722.105-1.722.168 0 .212 2.56 1.398 4.05 1.864 4.47 1.377 9.78.784 13.766-1.567 2.833-1.674 5.666-5 6.988-8.22.713-1.716 1.427-4.85 1.427-6.356 0-.975.062-1.102 1.237-2.267.692-.678 1.343-1.42 1.47-1.632.21-.4.188-.4-.883-.04-1.783.635-2.035.55-1.154-.403.65-.678 1.427-1.907 1.427-2.267 0-.064-.315.042-.67.233-.38.212-1.218.53-1.848.72l-1.134.36-1.028-.7c-.567-.38-1.364-.804-1.784-.93-1.07-.298-2.707-.255-3.672.084-2.623.953-4.28 3.41-4.092 6.1zm0 0" fill="#fff"/><path d="M60.087 30c0 16.57-13.45 30-30.044 30-6.153 0-11.875-1.847-16.64-5.017L47.83 5.82C55.262 11.28 60.086 20.077 60.086 30zm0 0" fill-opacity=".08"/></svg>